<?xml version="1.0" standalone="no"?>
<!DOCTYPE svg PUBLIC "-//W3C//DTD SVG 20010904//EN"
 "http://www.w3.org/TR/2001/REC-SVG-20010904/DTD/svg10.dtd">
<svg version="1.0" xmlns="http://www.w3.org/2000/svg"
 width="512.000000pt" height="512.000000pt" viewBox="0 0 512.000000 512.000000"
 preserveAspectRatio="xMidYMid meet">

<g transform="translate(0.000000,512.000000) scale(0.100000,-0.100000)"
stroke="none">
<path d="M575 3986 c-41 -18 -83 -69 -90 -109 -3 -18 -4 -622 -3 -1344 3
-1307 3 -1312 24 -1339 11 -15 33 -37 48 -48 27 -21 39 -21 634 -24 413 -2
632 1 686 8 356 51 633 335 678 696 37 289 -99 589 -341 753 l-62 42 55 61
c149 164 221 422 182 647 -30 170 -94 298 -214 423 -120 125 -264 203 -432
234 -108 19 -1121 19 -1165 0z m1140 -321 c256 -67 415 -329 350 -578 -41
-159 -147 -276 -308 -340 -46 -19 -80 -22 -294 -26 -224 -6 -244 -8 -269 -27
-53 -39 -69 -71 -69 -134 0 -63 16 -95 69 -134 26 -20 44 -21 349 -26 298 -5
326 -7 374 -27 162 -65 267 -181 308 -340 65 -249 -94 -511 -350 -578 -49 -12
-143 -15 -567 -15 l-508 0 0 1120 0 1120 428 0 c352 0 438 -3 487 -15z"/>
<path d="M3055 3826 c-67 -29 -105 -106 -91 -181 9 -47 59 -102 104 -115 25
-8 233 -10 634 -8 585 3 597 3 624 24 53 39 69 71 69 134 0 63 -16 95 -69 134
-27 21 -39 21 -634 23 -489 2 -613 0 -637 -11z"/>
<path d="M3575 3191 c-337 -56 -615 -264 -762 -570 -61 -128 -85 -242 -90
-426 -4 -137 -2 -175 17 -265 80 -390 363 -686 750 -783 108 -26 283 -29 382
-4 230 57 429 188 557 367 42 59 46 70 46 122 0 63 -19 97 -75 136 -38 25
-110 29 -150 8 -14 -8 -52 -47 -86 -87 -196 -239 -471 -309 -729 -186 -149 72
-253 175 -326 323 -51 105 -69 191 -69 334 0 143 18 229 69 334 73 148 177
251 326 323 148 70 276 78 429 25 220 -76 391 -268 431 -484 l7 -37 -460 -3
c-449 -3 -461 -4 -489 -24 -98 -73 -98 -195 0 -268 28 -21 36 -21 607 -21 569
0 579 0 606 21 63 46 69 65 68 197 -2 372 -217 709 -557 876 -153 74 -368 114
-502 92z"/>
</g>
</svg>
