<?xml version="1.0" standalone="no"?>
<!DOCTYPE svg PUBLIC "-//W3C//DTD SVG 20010904//EN"
 "http://www.w3.org/TR/2001/REC-SVG-20010904/DTD/svg10.dtd">
<svg version="1.0" xmlns="http://www.w3.org/2000/svg"
 width="512.000000pt" height="512.000000pt" viewBox="0 0 512.000000 512.000000"
 preserveAspectRatio="xMidYMid meet">

<g transform="translate(0.000000,512.000000) scale(0.100000,-0.100000)"
 stroke="none">
<path d="M0 2599 l0 -1560 843 4 c887 4 903 5 1089 52 97 25 254 106 333 172
158 133 267 317 310 523 19 89 21 271 4 366 -42 244 -187 429 -416 533 l-53
24 68 40 c94 57 201 166 240 247 99 203 98 507 -3 715 -118 245 -370 396 -723
434 -66 7 -385 11 -897 11 l-795 0 0 -1561z m1590 997 c109 -23 178 -61 217
-119 42 -62 53 -104 53 -198 0 -148 -55 -241 -171 -294 -111 -50 -173 -55
-635 -55 l-424 0 0 346 0 346 443 -5 c355 -4 457 -8 517 -21z m57 -1208 c90
-27 140 -57 192 -114 68 -74 86 -130 85 -264 -3 -249 -123 -384 -371 -420 -38
-5 -260 -10 -495 -10 l-428 0 0 416 0 415 483 -4 c404 -3 491 -6 534 -19z"/>
<path d="M3270 3820 l0 -190 680 0 680 0 0 190 0 190 -680 0 -680 0 0 -190z"/>
<path d="M3800 3399 c-452 -46 -808 -332 -934 -749 -83 -275 -87 -661 -10
-926 80 -278 218 -450 482 -600 227 -130 541 -189 818 -155 303 38 505 129
684 311 125 126 211 266 239 389 l9 41 -314 0 -314 0 -35 -54 c-63 -99 -162
-164 -293 -192 -266 -56 -546 57 -645 260 -34 69 -67 194 -67 253 l0 43 852 0
851 0 -6 193 c-10 331 -61 524 -192 722 -187 282 -448 429 -830 465 -124 11
-173 11 -295 -1z m291 -503 c142 -31 274 -126 329 -240 32 -66 60 -163 60
-208 l0 -28 -525 0 -525 0 6 28 c17 79 49 171 76 220 41 72 122 154 184 185
103 52 267 70 395 43z"/>
</g>
</svg>
