<svg height="512pt" viewBox="0 0 512 512" width="512pt" xmlns="http://www.w3.org/2000/svg"><path d="m361.472656 512c-22.453125 0-44.695312-4.976562-64.761718-14.441406-14.269532 2.339844-26.542969 3.441406-38.191407 3.441406-135.378906 0-245.519531-108.808594-245.519531-242.550781 0-13.023438 1.292969-26.574219 3.9375-41.214844-11.101562-21.082031-16.9375-44.613281-16.9375-68.535156 0-81.992188 67.539062-148.699219 150.558594-148.699219 25.835937 0 51.078125 6.523438 73.46875 18.929688 10.199218-1.3125 21.359375-1.929688 34.492187-1.929688 65.417969 0 126.828125 25.050781 172.917969 70.53125 46.148438 45.542969 71.5625 106.246094 71.5625 170.925781 0 17.136719-1.167969 31.671875-3.648438 45.113281 8.398438 18.761719 12.648438 38.820313 12.648438 59.730469 0 81.992188-67.527344 148.699219-150.527344 148.699219zm-58.445312-56.195312 6.144531 3.265624c15.898437 8.457032 33.984375 12.929688 52.300781 12.929688 60.945313 0 110.527344-48.761719 110.527344-108.699219 0-16.996093-3.839844-33.1875-11.417969-48.125l-3.25-6.414062 1.574219-7.015625c2.792969-12.4375 4.09375-26.191406 4.09375-43.289063 0-111.082031-91.730469-201.457031-204.480469-201.457031-14.078125 0-25.257812.78125-35.191406 2.464844l-7.464844 1.261718-6.429687-3.996093c-17.609375-10.945313-37.96875-16.730469-58.875-16.730469-60.960938 0-110.558594 48.761719-110.558594 108.699219 0 19.335937 5.234375 38.316406 15.136719 54.890625l3.988281 6.679687-1.570312 7.621094c-3.066407 14.839844-4.554688 28.105469-4.554688 40.558594 0 111.6875 92.195312 202.550781 205.519531 202.550781 10.949219 0 22.917969-1.253906 37.667969-3.945312zm81.972656-144.941407c0-14.382812-2.839844-26.75-8.503906-36.757812-5.664063-9.964844-13.628906-18.308594-23.648438-24.820313-9.851562-6.375-21.941406-11.835937-35.90625-16.304687-13.804687-4.378907-29.414062-8.410157-46.394531-12.039063-13.4375-3.085937-23.214844-5.488281-29.042969-7.085937-5.695312-1.558594-11.359375-3.769531-16.882812-6.511719-5.324219-2.644531-9.515625-5.828125-12.53125-9.421875-2.8125-3.429687-5.089844-7.390625-5.089844-12.140625 0-7.761719 5.164062-14.300781 13.933594-20 9.074218-5.929688 21.300781-8.382812 36.339844-8.382812 16.175781 0 28 2.183593 35.039062 7.503906 7.269531 5.460937 13.601562 13.257812 18.824219 23.160156 4.527343 7.734375 8.605469 13.128906 12.53125 16.582031 4.222656 3.695313 10.320312 5.355469 18.089843 5.355469 8.542969 0 15.8125-2.777344 21.539063-8.710938 5.726563-5.902343 9.703125-12.683593 9.703125-20.136718 0-7.730469-3.304688-15.730469-7.660156-23.769532-4.324219-7.972656-11.152344-15.628906-20.398438-22.816406-9.148437-7.125-20.832031-12.886718-34.636718-17.15625-13.765626-4.277344-30.253907-6.410156-49.003907-6.410156-23.417969 0-44.148437 3.214844-61.535156 9.625-17.652344 6.476562-31.382813 15.972656-40.730469 28.109375-9.476562 12.234375-15.035156 26.441406-15.035156 42.210937 0 16.546876 5.320312 30.578126 14.328125 41.800782 8.882813 11.023437 20.996094 19.835937 36.074219 26.210937 14.703125 6.207031 33.1875 11.695313 54.964844 16.339844 16.011718 3.363281 28.96875 6.550781 38.519531 9.5 9.109375 2.816406 16.679687 6.953125 22.410156 12.273437 5.425781 5.054688 8.398437 11.53125 8.398437 19.769532 0 10.414062-5.421874 18.957031-15.871093 26.042968-10.683594 7.253907-24.890625 10.117188-42.238281 10.117188-12.632813 0-22.878907-.996094-30.484376-4.59375-7.570312-3.527344-13.5-8.109375-17.589843-13.496094-4.316407-5.664062-8.367188-12.773437-12.085938-21.257812-3.320312-7.757813-7.433593-13.800782-12.292969-17.863282-5.058593-4.242187-11.28125-6.789062-18.484374-6.789062-8.769532 0-16.140626 3.121094-21.90625 8.480469-5.792969 5.421875-8.742188 12.0625-8.742188 19.695312 0 12.238281 4.519531 24.921875 13.464844 37.671875 8.777344 12.644532 20.429687 22.917969 34.53125 30.484375 19.695312 10.410157 44.984375 15.667969 75.128906 15.667969 25.085938 0 47.164062-3.863281 65.546875-11.453125 18.589844-7.660156 32.921875-18.476563 42.636719-32.140625 9.75-13.699219 14.671875-29.359375 14.691406-46.542969zm0 0"/></svg>