<?xml version="1.0" encoding="iso-8859-1"?>
<!-- Generator: Adobe Illustrator 17.1.0, SVG Export Plug-In . SVG Version: 6.00 Build 0)  -->
<!DOCTYPE svg PUBLIC "-//W3C//DTD SVG 1.1//EN" "http://www.w3.org/Graphics/SVG/1.1/DTD/svg11.dtd">
<svg version="1.1" id="Capa_1" xmlns="http://www.w3.org/2000/svg" xmlns:xlink="http://www.w3.org/1999/xlink" x="0px" y="0px"
	 viewBox="0 0 242.667 242.667" style="enable-background:new 0 0 242.667 242.667;" xml:space="preserve">
<path d="M0,0v242.667h242.667V0H0z M177.006,135.224l21.075,24.216c2.694,3.096,0.495,7.925-3.609,7.925h-23.783
	c-3.758,0-7.378-1.423-10.13-3.982l-7.043-6.549c-7.948-6.954-11.326-9.339-14.505-9.339c-3.179,0-3.974,2.384-3.974,8.544
	c0,6.159-1.192,11.326-19.472,11.326s-32.586-13.71-48.68-34.97c-16.094-21.26-23.247-44.11-23.247-44.11
	c-0.888-2.86,1.25-5.762,4.245-5.762h19.032c3.62,0,6.917,2.092,8.435,5.378c1.558,3.373,4.238,8.578,8.822,16.279
	c6.505,10.928,12.754,15.851,16.294,17.947c1.318,0.781,2.98-0.184,2.98-1.716V94.199c0-3.43-1.239-6.744-3.49-9.332l-2.683-3.085
	c-0.694-0.798-0.127-2.041,0.93-2.041h30.079c4.609,0,8.345,3.736,8.345,8.345v30.483c0,1.964,2.549,2.732,3.634,1.096
	l21.649-32.627c1.707-2.572,4.589-4.119,7.675-4.119h25.413c3.473,0,5.585,3.825,3.736,6.765l-22.487,35.741
	C174.312,128.502,174.62,132.482,177.006,135.224z"/>
<g>
</g>
<g>
</g>
<g>
</g>
<g>
</g>
<g>
</g>
<g>
</g>
<g>
</g>
<g>
</g>
<g>
</g>
<g>
</g>
<g>
</g>
<g>
</g>
<g>
</g>
<g>
</g>
<g>
</g>
</svg>
