<?xml version="1.0" encoding="iso-8859-1"?>
<!-- Generator: Adobe Illustrator 19.0.0, SVG Export Plug-In . SVG Version: 6.00 Build 0)  -->
<svg version="1.1" id="Layer_1" xmlns="http://www.w3.org/2000/svg" xmlns:xlink="http://www.w3.org/1999/xlink" x="0px" y="0px"
	 viewBox="0 0 512 512" style="enable-background:new 0 0 512 512;" xml:space="preserve">
<g>
	<g>
		<path d="M221.795,131.128c-18.566,0-33.67,15.105-33.67,33.67s15.105,33.67,33.67,33.67s33.67-15.103,33.67-33.67
			C255.466,146.233,240.361,131.128,221.795,131.128z M221.795,182.435c-9.725,0-17.637-7.912-17.637-17.637
			c0-9.725,7.912-17.637,17.637-17.637s17.637,7.912,17.637,17.637C239.432,174.523,231.52,182.435,221.795,182.435z"/>
	</g>
</g>
<g>
	<g>
		<path d="M127.733,131.128c-18.566,0-33.67,15.105-33.67,33.67s15.105,33.67,33.67,33.67s33.67-15.103,33.67-33.67
			C161.403,146.233,146.298,131.128,127.733,131.128z M127.733,182.435c-9.725,0-17.637-7.912-17.637-17.637
			c0-9.725,7.912-17.637,17.637-17.637s17.637,7.912,17.637,17.637C145.37,174.523,137.458,182.435,127.733,182.435z"/>
	</g>
</g>
<g>
	<g>
		<path d="M512,327.27c0-40.141-17.926-77.462-50.476-105.085c-3.376-2.864-8.436-2.449-11.299,0.926
			c-2.865,3.376-2.451,8.435,0.925,11.299c28.901,24.528,44.818,57.505,44.818,92.86c0,38.173-19.04,74.162-52.24,98.736
			c-2.545,1.884-3.743,5.091-3.056,8.182l8.685,39.081l-41.19-24.715c-2.005-1.202-4.438-1.471-6.657-0.732
			c-16.44,5.474-33.748,8.25-51.446,8.25c-80.451,0-145.904-57.78-145.904-128.802s65.453-128.802,145.904-128.802
			c26.433,0,52.322,6.306,74.871,18.239c3.911,2.07,8.765,0.577,10.835-3.336c2.072-3.913,0.577-8.764-3.336-10.835
			c-24.85-13.149-53.333-20.101-82.37-20.101c-0.355,0-0.707,0.01-1.06,0.012c0.336-3.973,0.526-7.968,0.526-11.948
			c0-86.15-78.399-156.237-174.764-156.237S0,84.35,0,170.499c0,17.931,3.369,35.515,10.014,52.265
			c1.695,4.275,6.813,6.263,10.956,4.255c3.726-1.806,5.474-6.32,3.947-10.167c-5.896-14.86-8.885-30.455-8.885-46.353
			c0-77.309,71.206-140.204,158.731-140.204S333.495,93.19,333.495,170.499c0,4.253-0.223,8.526-0.654,12.756
			c-74.909,7.116-134.723,60.097-143.574,126.857c-4.808,0.385-9.674,0.59-14.503,0.59c-28.915,0-57.224-6.945-81.868-20.082
			c-2.357-1.257-5.187-1.257-7.544,0.001l-36.721,19.584l12.973-34.595c1.139-3.041,0.335-6.468-2.042-8.68
			c-7.636-7.114-14.442-14.95-20.231-23.292c-2.525-3.635-7.519-4.541-11.157-2.015c-3.637,2.524-4.54,7.519-2.016,11.157
			c5.437,7.835,11.673,15.262,18.583,22.135l-18.577,49.541c-2.533,6.754,4.885,13.3,11.279,9.888l51.738-27.593
			c26.037,13.088,55.529,19.986,85.583,19.986c4.449,0,8.93-0.155,13.375-0.455c-0.002,0.33-0.014,0.658-0.014,0.99
			c0,79.862,72.644,144.835,161.937,144.835c18.158,0,35.958-2.667,52.969-7.933l54.071,32.445
			c5.928,3.552,13.443-1.897,11.95-8.614l-11.622-52.3C492.178,408.183,512,368.94,512,327.27z"/>
	</g>
</g>
<g>
	<g>
		<path d="M298.756,293.6c-18.566,0-33.67,15.105-33.67,33.67s15.105,33.67,33.67,33.67s33.67-15.105,33.67-33.67
			S317.321,293.6,298.756,293.6z M298.756,344.907c-9.725,0-17.637-7.912-17.637-17.637s7.912-17.637,17.637-17.637
			s17.637,7.913,17.637,17.637C316.393,336.995,308.481,344.907,298.756,344.907z"/>
	</g>
</g>
<g>
	<g>
		<path d="M401.37,293.6c-18.566,0-33.67,15.105-33.67,33.67s15.105,33.67,33.67,33.67c18.566,0,33.67-15.105,33.67-33.67
			S419.935,293.6,401.37,293.6z M401.37,344.907c-9.725,0-17.637-7.912-17.637-17.637s7.912-17.637,17.637-17.637
			s17.637,7.912,17.637,17.637S411.094,344.907,401.37,344.907z"/>
	</g>
</g>
<g>
</g>
<g>
</g>
<g>
</g>
<g>
</g>
<g>
</g>
<g>
</g>
<g>
</g>
<g>
</g>
<g>
</g>
<g>
</g>
<g>
</g>
<g>
</g>
<g>
</g>
<g>
</g>
<g>
</g>
</svg>
