<?xml version="1.0" standalone="no"?>
<!DOCTYPE svg PUBLIC "-//W3C//DTD SVG 20010904//EN"
 "http://www.w3.org/TR/2001/REC-SVG-20010904/DTD/svg10.dtd">
<svg version="1.0" xmlns="http://www.w3.org/2000/svg"
 width="512.000000pt" height="512.000000pt" viewBox="0 0 512.000000 512.000000"
 preserveAspectRatio="xMidYMid meet">

<g transform="translate(0.000000,512.000000) scale(0.100000,-0.100000)"
stroke="none">
<path d="M579 5107 c-26 -7 -68 -27 -95 -45 -58 -37 -401 -381 -431 -432 -36
-60 -56 -147 -49 -212 14 -133 -28 -86 888 -1003 461 -462 838 -847 838 -855
0 -8 -377 -393 -838 -855 -911 -912 -873 -869 -888 -997 -8 -72 17 -169 61
-233 19 -28 117 -132 217 -231 223 -221 254 -239 393 -239 164 1 96 -57 1044
891 458 459 838 833 843 832 6 -2 385 -378 842 -835 944 -944 878 -887 1041
-888 139 0 170 18 393 239 100 99 198 203 217 231 44 64 69 161 61 233 -15
128 23 85 -888 997 -461 462 -838 847 -838 855 0 8 377 393 838 855 911 912
873 869 888 997 8 72 -17 169 -61 233 -19 28 -117 132 -217 231 -223 221 -254
239 -393 239 -163 -1 -97 56 -1042 -889 -457 -457 -837 -831 -843 -831 -7 0
-386 374 -844 831 -741 741 -837 835 -890 859 -70 32 -177 42 -247 22z"/>
</g>
</svg>