<?xml version="1.0" standalone="no"?>
<!DOCTYPE svg PUBLIC "-//W3C//DTD SVG 20010904//EN"
 "http://www.w3.org/TR/2001/REC-SVG-20010904/DTD/svg10.dtd">
<svg version="1.0" xmlns="http://www.w3.org/2000/svg"
 width="512.000000pt" height="392.000000pt" viewBox="0 0 512.000000 392.000000"
 preserveAspectRatio="xMidYMid meet">

<g transform="translate(0.000000,392.000000) scale(0.100000,-0.100000)" stroke="none">
<path d="M1690 3885 c-317 -70 -559 -148 -858 -275 -49 -21 -57 -30 -126 -139
-330 -522 -544 -1059 -641 -1610 -50 -287 -59 -412 -58 -766 1 -181 5 -355 10
-385 l8 -54 130 -89 c325 -221 663 -391 1017 -512 73 -25 138 -43 144 -41 25
10 274 407 274 437 0 4 -26 17 -57 29 -79 31 -335 158 -352 175 -17 17 -13 23
41 62 l43 31 100 -43 c528 -225 1131 -298 1690 -204 257 43 491 114 766 232
35 15 36 15 80 -20 24 -19 44 -40 44 -46 0 -14 -209 -124 -320 -168 -44 -18
-84 -36 -89 -40 -20 -18 239 -448 270 -449 7 0 65 18 130 41 369 127 702 294
1029 516 l130 89 7 54 c3 30 9 159 13 285 28 882 -200 1686 -702 2477 l-74
116 -137 57 c-253 105 -583 205 -826 250 l-90 17 -17 -24 c-10 -12 -42 -74
-71 -137 l-53 -113 -50 6 c-27 3 -93 11 -145 18 -124 16 -645 16 -775 0 -55
-6 -122 -14 -150 -18 l-50 -5 -65 133 c-76 155 -63 148 -220 113z m204 -1649
c131 -64 226 -189 262 -343 20 -84 14 -223 -14 -304 -115 -344 -492 -448 -737
-204 -160 160 -199 419 -95 632 57 115 150 199 269 240 55 20 80 23 154 20 76
-4 98 -9 161 -41z m1702 -1 c171 -84 274 -259 274 -465 0 -150 -47 -274 -142
-375 -260 -279 -680 -133 -764 265 -44 209 47 442 216 550 82 53 151 71 253
66 77 -3 98 -8 163 -41z"/>
</g>
</svg>