<?xml version="1.0" standalone="no"?>
<!DOCTYPE svg PUBLIC "-//W3C//DTD SVG 20010904//EN"
 "http://www.w3.org/TR/2001/REC-SVG-20010904/DTD/svg10.dtd">
<svg version="1.0" xmlns="http://www.w3.org/2000/svg"
 width="223.000000pt" height="200.000000pt" viewBox="0 0 223.000000 200.000000"
 preserveAspectRatio="xMidYMid meet">

<g transform="translate(0.000000,200.000000) scale(0.100000,-0.100000)"
stroke="none">
<path d="M1058 1985 c-40 -22 -48 -45 -48 -129 0 -42 -3 -76 -8 -76 -4 0 -65
16 -136 35 -71 20 -131 34 -133 31 -2 -2 14 -40 36 -85 142 -282 206 -551 170
-723 -13 -65 -90 -228 -153 -327 -26 -40 -45 -79 -42 -87 4 -11 34 -14 136
-14 l130 0 0 -100 0 -100 -152 0 c-134 0 -157 2 -196 21 -56 27 -93 84 -100
149 l-5 50 -275 0 -275 0 6 -78 c7 -85 37 -181 82 -258 44 -75 150 -174 231
-217 140 -73 135 -72 739 -72 534 0 541 0 587 22 69 31 141 104 212 213 35 52
84 127 110 167 37 56 62 82 116 118 37 25 82 50 99 56 31 11 31 11 31 86 0 66
-2 74 -17 69 -10 -3 -137 -39 -283 -81 l-265 -77 -70 -68 c-92 -91 -116 -100
-260 -100 l-115 0 0 100 0 100 74 0 c85 0 102 10 200 120 75 84 110 135 149
218 28 58 32 77 31 147 -1 97 -23 160 -96 272 -52 81 -266 303 -326 338 l-32
19 0 88 c0 90 -13 142 -43 166 -24 20 -79 24 -109 7z"/>
<path d="M586 1558 c-18 -29 -126 -198 -240 -376 -113 -178 -206 -328 -206
-333 0 -5 103 -9 254 -9 l254 0 52 105 c61 121 72 195 50 319 -21 118 -101
346 -121 346 -5 0 -24 -24 -43 -52z"/>
</g>
</svg>