<?xml version="1.0" standalone="no"?>
<!DOCTYPE svg PUBLIC "-//W3C//DTD SVG 20010904//EN"
 "http://www.w3.org/TR/2001/REC-SVG-20010904/DTD/svg10.dtd">
<svg version="1.0" xmlns="http://www.w3.org/2000/svg"
 width="398.000000pt" height="317.000000pt" viewBox="0 0 398.000000 317.000000"
 preserveAspectRatio="xMidYMid meet">

<g transform="translate(0.000000,317.000000) scale(0.100000,-0.100000)"
stroke="none">
<path d="M585 2580 l-590 -590 998 -998 997 -997 997 997 998 998 -590 590
-590 590 -815 0 -815 0 -590 -590z m1601 195 c202 -29 410 -115 575 -240 46
-35 193 -173 327 -307 l243 -244 -253 -250 c-139 -137 -284 -273 -321 -301
-90 -68 -290 -167 -399 -198 -98 -27 -281 -55 -363 -55 -87 0 -275 28 -371 55
-110 31 -310 129 -401 197 -37 28 -182 164 -321 302 l-252 250 252 253 c139
139 287 278 329 308 276 199 610 279 955 230z"/>
<path d="M1860 2594 c-167 -36 -326 -150 -403 -289 -81 -144 -107 -305 -73
-453 51 -225 227 -406 453 -468 77 -21 221 -20 303 1 216 55 392 228 451 440
23 82 18 266 -8 351 -94 297 -417 485 -723 418z m235 -368 c60 -28 128 -98
145 -151 8 -23 11 -66 8 -111 -4 -63 -9 -79 -40 -121 -67 -93 -166 -134 -271
-111 -157 33 -242 183 -195 342 15 51 108 147 158 163 62 19 140 15 195 -11z"/>
</g>
</svg>
