<?xml version="1.0" standalone="no"?>
<!DOCTYPE svg PUBLIC "-//W3C//DTD SVG 20010904//EN"
 "http://www.w3.org/TR/2001/REC-SVG-20010904/DTD/svg10.dtd">
<svg version="1.0" xmlns="http://www.w3.org/2000/svg"
 width="512.000000pt" height="512.000000pt" viewBox="0 0 512.000000 512.000000"
 preserveAspectRatio="xMidYMid meet">

<g transform="translate(0.000000,512.000000) scale(0.100000,-0.100000)"
stroke="none">
<path d="M1895 4672 c-16 -11 -443 -421 -949 -912 -601 -584 -923 -904 -932
-926 -20 -48 -17 -93 9 -136 12 -21 437 -440 945 -933 1001 -970 953 -929
1041 -905 21 5 50 19 65 31 57 45 56 37 56 555 l0 477 283 -6 c217 -4 314 -10
421 -26 803 -124 1502 -586 1916 -1267 36 -58 76 -119 89 -135 68 -85 187 -78
255 14 66 89 0 643 -120 1012 -336 1030 -1186 1806 -2234 2038 -141 32 -296
55 -415 62 -49 3 -114 8 -142 11 l-53 5 0 471 c0 519 0 515 -63 560 -43 31
-132 36 -172 10z"/>
</g>
</svg>
